<svg width="41" height="41" viewBox="0 0 41 41" fill="none" xmlns="http://www.w3.org/2000/svg">
<path d="M7.08744 35.2002H33.7171C34.1496 35.2001 34.5747 35.0878 34.9509 34.8743C35.327 34.6608 35.6413 34.3533 35.8631 33.982C36.0848 33.6107 36.2065 33.1882 36.2161 32.7558C36.2257 32.3234 36.123 31.8959 35.9179 31.515L22.6038 6.78848C21.6593 5.03535 19.1453 5.03535 18.2007 6.78848L4.88666 31.515C4.68163 31.8959 4.57889 32.3234 4.58851 32.7558C4.59812 33.1882 4.71975 33.6107 4.94151 33.982C5.16327 34.3533 5.47758 34.6608 5.85371 34.8743C6.22984 35.0878 6.65493 35.2001 7.08744 35.2002Z" stroke="#009AC8" stroke-width="2.5" stroke-linecap="round" stroke-linejoin="round"/>
<path d="M19.9534 15.6026L20.4019 25.1338L20.8495 15.6065C20.8523 15.5456 20.8426 15.4847 20.8211 15.4277C20.7995 15.3707 20.7666 15.3186 20.7242 15.2747C20.6819 15.2309 20.6311 15.1961 20.5748 15.1725C20.5186 15.149 20.4581 15.1371 20.3972 15.1377C20.3373 15.1383 20.2781 15.1509 20.2231 15.1747C20.1682 15.1986 20.1186 15.2332 20.0772 15.2765C20.0358 15.3198 20.0036 15.371 19.9823 15.427C19.9611 15.483 19.9512 15.5427 19.9534 15.6026Z" stroke="#009AC8" stroke-width="2.5" stroke-linecap="round" stroke-linejoin="round"/>
<path d="M20.4023 31.373C20.0933 31.373 19.7912 31.2814 19.5343 31.1097C19.2773 30.938 19.077 30.694 18.9588 30.4085C18.8405 30.123 18.8096 29.8088 18.8699 29.5057C18.9302 29.2026 19.079 28.9242 19.2975 28.7057C19.516 28.4872 19.7944 28.3384 20.0975 28.2781C20.4006 28.2178 20.7148 28.2487 21.0003 28.367C21.2858 28.4852 21.5298 28.6855 21.7015 28.9425C21.8732 29.1994 21.9648 29.5015 21.9648 29.8105C21.9648 30.2249 21.8002 30.6224 21.5072 30.9154C21.2142 31.2084 20.8167 31.373 20.4023 31.373Z" fill="#009AC8"/>
</svg>
