<svg width="41" height="41" viewBox="0 0 41 41" fill="none" xmlns="http://www.w3.org/2000/svg">
<path d="M34.0517 37.8545H14.0517C13.14 37.8545 12.2657 37.4923 11.621 36.8477C10.9763 36.203 10.6142 35.3287 10.6142 34.417V33.8545C8.48148 33.3604 6.57903 32.1584 5.2169 30.4446C3.85477 28.7308 3.11328 26.6062 3.11328 24.417C3.11328 22.2278 3.85477 20.1032 5.2169 18.3894C6.57903 16.6755 8.48148 15.4736 10.6142 14.9795V6.917C10.6142 6.00532 10.9763 5.13097 11.621 4.48632C12.2657 3.84166 13.14 3.4795 14.0517 3.4795H28.0142C28.4672 3.47866 28.916 3.56772 29.3344 3.74152C29.7528 3.91531 30.1325 4.1704 30.4517 4.492L36.4767 10.517C36.8059 10.8435 37.0653 11.2334 37.2394 11.6631C37.4134 12.0929 37.4984 12.5535 37.4892 13.017V34.417C37.4892 35.3287 37.127 36.203 36.4824 36.8477C35.8377 37.4923 34.9634 37.8545 34.0517 37.8545ZM12.4892 34.1045V34.417C12.4892 34.8314 12.6538 35.2288 12.9468 35.5219C13.2398 35.8149 13.6373 35.9795 14.0517 35.9795H34.0517C34.4661 35.9795 34.8635 35.8149 35.1565 35.5219C35.4496 35.2288 35.6142 34.8314 35.6142 34.417V14.1045H30.3017C29.39 14.1045 28.5157 13.7423 27.871 13.0977C27.2263 12.453 26.8642 11.5787 26.8642 10.667V5.3545H14.0517C13.6373 5.3545 13.2398 5.51912 12.9468 5.81214C12.6538 6.10517 12.4892 6.5026 12.4892 6.917V14.7295H12.8017C15.371 14.7295 17.835 15.7501 19.6518 17.5669C21.4685 19.3837 22.4892 21.8477 22.4892 24.417C22.4892 26.9863 21.4685 29.4503 19.6518 31.2671C17.835 33.0839 15.371 34.1045 12.8017 34.1045H12.4892ZM12.8017 16.6045C11.2565 16.6045 9.74604 17.0627 8.46128 17.9211C7.17652 18.7796 6.17518 19.9997 5.58387 21.4273C4.99256 22.8548 4.83784 24.4257 5.13929 25.9411C5.44074 27.4566 6.1848 28.8487 7.2774 29.9413C8.37 31.0339 9.76205 31.7779 11.2775 32.0794C12.793 32.3808 14.3638 32.2261 15.7914 31.6348C17.2189 31.0435 18.4391 30.0421 19.2975 28.7574C20.156 27.4726 20.6142 25.9622 20.6142 24.417C20.6142 22.345 19.7911 20.3579 18.3259 18.8927C16.8608 17.4276 14.8737 16.6045 12.8017 16.6045ZM28.7392 5.5295V10.667C28.7392 11.0814 28.9038 11.4788 29.1968 11.7719C29.4898 12.0649 29.8873 12.2295 30.3017 12.2295H35.4392C35.3618 12.0876 35.2651 11.9572 35.1517 11.842L29.1267 5.817C29.0115 5.70361 28.8811 5.60684 28.7392 5.5295ZM31.5517 29.1045H25.3017C25.053 29.1045 24.8146 29.0057 24.6388 28.8299C24.4629 28.6541 24.3642 28.4156 24.3642 28.167C24.3642 27.9184 24.4629 27.6799 24.6388 27.5041C24.8146 27.3283 25.053 27.2295 25.3017 27.2295H31.5517C31.8003 27.2295 32.0388 27.3283 32.2146 27.5041C32.3904 27.6799 32.4892 27.9184 32.4892 28.167C32.4892 28.4156 32.3904 28.6541 32.2146 28.8299C32.0388 29.0057 31.8003 29.1045 31.5517 29.1045ZM10.9267 27.2295C10.6855 27.2111 10.4611 27.0989 10.3017 26.917C10.1479 26.7451 10.0629 26.5226 10.0629 26.292C10.0629 26.0614 10.1479 25.8389 10.3017 25.667L11.9017 24.067V20.667C11.9017 20.4184 12.0004 20.1799 12.1763 20.0041C12.3521 19.8283 12.5905 19.7295 12.8392 19.7295C13.0878 19.7295 13.3263 19.8283 13.5021 20.0041C13.6779 20.1799 13.7767 20.4184 13.7767 20.667V24.417C13.7765 24.6656 13.6775 24.9039 13.5017 25.0795L11.5517 26.917C11.3922 27.0989 11.1679 27.2111 10.9267 27.2295ZM31.5517 24.1045H26.5517C26.303 24.1045 26.0646 24.0057 25.8888 23.8299C25.7129 23.6541 25.6142 23.4156 25.6142 23.167C25.6142 22.9184 25.7129 22.6799 25.8888 22.5041C26.0646 22.3283 26.303 22.2295 26.5517 22.2295H31.5517C31.8003 22.2295 32.0388 22.3283 32.2146 22.5041C32.3904 22.6799 32.4892 22.9184 32.4892 23.167C32.4892 23.4156 32.3904 23.6541 32.2146 23.8299C32.0388 24.0057 31.8003 24.1045 31.5517 24.1045ZM31.5517 19.1045H25.3017C25.053 19.1045 24.8146 19.0057 24.6388 18.8299C24.4629 18.6541 24.3642 18.4156 24.3642 18.167C24.3642 17.9184 24.4629 17.6799 24.6388 17.5041C24.8146 17.3283 25.053 17.2295 25.3017 17.2295H31.5517C31.8003 17.2295 32.0388 17.3283 32.2146 17.5041C32.3904 17.6799 32.4892 17.9184 32.4892 18.167C32.4892 18.4156 32.3904 18.6541 32.2146 18.8299C32.0388 19.0057 31.8003 19.1045 31.5517 19.1045ZM22.8017 14.1045H19.0517C18.803 14.1045 18.5646 14.0057 18.3888 13.8299C18.2129 13.6541 18.1142 13.4156 18.1142 13.167C18.1142 12.9184 18.2129 12.6799 18.3888 12.5041C18.5646 12.3283 18.803 12.2295 19.0517 12.2295H22.8017C23.0503 12.2295 23.2888 12.3283 23.4646 12.5041C23.6404 12.6799 23.7392 12.9184 23.7392 13.167C23.7392 13.4156 23.6404 13.6541 23.4646 13.8299C23.2888 14.0057 23.0503 14.1045 22.8017 14.1045Z" fill="#009AC8"/>
</svg>
