<svg width="41" height="40" viewBox="0 0 41 40" fill="none" xmlns="http://www.w3.org/2000/svg">
<path d="M37.0978 13.5145C35.8984 12.3151 33.9468 12.3152 32.747 13.5148C32.378 13.8842 30.022 16.2421 29.6621 16.6023V8.47639C29.6621 7.65471 29.3421 6.88225 28.7611 6.30126L25.8609 3.40098C25.2799 2.81992 24.5074 2.5 23.6857 2.5H6.07812C4.38192 2.5 3.00195 3.87997 3.00195 5.57617V34.4238C3.00195 36.12 4.38192 37.5 6.07812 37.5H26.5859C28.2821 37.5 29.6621 36.12 29.6621 34.4238V25.3068L37.0977 17.8649C38.2999 16.6628 38.3002 14.7168 37.0978 13.5145ZM23.5098 4.55078C23.7036 4.55078 24.0769 4.51722 24.4108 4.85108L27.311 7.75137C27.6364 8.07683 27.6114 8.43346 27.6114 8.65234H23.5098V4.55078ZM27.6113 34.4238C27.6113 34.9892 27.1514 35.4492 26.5859 35.4492H6.07812C5.51272 35.4492 5.05273 34.9892 5.05273 34.4238V5.57617C5.05273 5.01077 5.51272 4.55078 6.07812 4.55078H21.459V9.67773C21.459 10.244 21.9181 10.7031 22.4844 10.7031H27.6113V18.6549C27.6113 18.6549 24.5861 21.6827 24.586 21.6827L23.1366 23.1322C23.0241 23.2447 22.9392 23.382 22.8889 23.533L21.4387 27.8834C21.3158 28.2519 21.4117 28.6581 21.6864 28.9327C21.9614 29.2077 22.3678 29.3032 22.7357 29.1805L27.0861 27.7304C27.2371 27.68 27.3744 27.5952 27.4869 27.4826L27.6113 27.3582V34.4238ZM25.3117 23.8573L26.7618 25.3074L26.2079 25.8613L24.0328 26.5864L24.7578 24.4112L25.3117 23.8573ZM28.2117 23.857L26.7616 22.4069C27.5337 21.6341 30.9633 18.2016 31.6906 17.4736L33.1407 18.9237L28.2117 23.857ZM35.6473 16.4151L34.5903 17.473L33.1402 16.0229L34.1975 14.9646C34.5976 14.5648 35.248 14.5649 35.6477 14.9646C36.0474 15.3646 36.0495 16.0128 35.6473 16.4151Z" fill="#009AC8"/>
<path d="M22.4844 12.7539H8.12891C7.56262 12.7539 7.10352 13.213 7.10352 13.7793C7.10352 14.3456 7.56262 14.8047 8.12891 14.8047H22.4844C23.0507 14.8047 23.5098 14.3456 23.5098 13.7793C23.5098 13.213 23.0507 12.7539 22.4844 12.7539Z" fill="#009AC8"/>
<path d="M18.3828 16.8555H8.12891C7.56262 16.8555 7.10352 17.3146 7.10352 17.8809C7.10352 18.4471 7.56262 18.9062 8.12891 18.9062H18.3828C18.9491 18.9062 19.4082 18.4471 19.4082 17.8809C19.4082 17.3146 18.9491 16.8555 18.3828 16.8555Z" fill="#009AC8"/>
<path d="M18.3828 20.957H8.12891C7.56262 20.957 7.10352 21.4161 7.10352 21.9824C7.10352 22.5487 7.56262 23.0078 8.12891 23.0078H18.3828C18.9491 23.0078 19.4082 22.5487 19.4082 21.9824C19.4082 21.4161 18.9491 20.957 18.3828 20.957Z" fill="#009AC8"/>
<path d="M18.3828 25.0586H8.12891C7.56262 25.0586 7.10352 25.5177 7.10352 26.084C7.10352 26.6503 7.56262 27.1094 8.12891 27.1094H18.3828C18.9491 27.1094 19.4082 26.6503 19.4082 26.084C19.4082 25.5177 18.9491 25.0586 18.3828 25.0586Z" fill="#009AC8"/>
<path d="M22.4844 31.3477H16.332C15.7657 31.3477 15.3066 31.8068 15.3066 32.373C15.3066 32.9393 15.7657 33.3984 16.332 33.3984H22.4844C23.0507 33.3984 23.5098 32.9393 23.5098 32.373C23.5098 31.8068 23.0507 31.3477 22.4844 31.3477Z" fill="#009AC8"/>
</svg>
