<svg width="41" height="41" viewBox="0 0 41 41" fill="none" xmlns="http://www.w3.org/2000/svg">
<path d="M3.85113 8.33281C5.18447 2.56615 13.8678 2.56615 15.1845 8.33281C15.9678 11.7161 13.8178 14.5828 11.9511 16.3661C10.5845 17.6661 8.43447 17.6495 7.0678 16.3661C5.2178 14.5828 3.0678 11.7161 3.85113 8.33281Z" stroke="#009AC8" stroke-width="2.5"/>
<path d="M25.517 28.3328C26.8504 22.5661 35.5837 22.5661 36.917 28.3328C37.7004 31.7161 35.5504 34.5828 33.667 36.3661C32.3004 37.6661 30.1337 37.6495 28.767 36.3661C26.8837 34.5828 24.7337 31.7161 25.517 28.3328Z" stroke="#009AC8" stroke-width="2.5"/>
<path d="M20.4012 9H24.8679C27.9512 9 29.3845 12.8167 27.0679 14.85L13.7512 26.5C11.4345 28.5167 12.8679 32.3333 15.9345 32.3333H20.4012" stroke="#009AC8" stroke-width="2.5" stroke-linecap="round" stroke-linejoin="round"/>
<path d="M9.54457 9.83333H9.56383" stroke="#009AC8" stroke-width="2.5" stroke-linecap="round" stroke-linejoin="round"/>
<path d="M31.2106 29.8333H31.2298" stroke="#009AC8" stroke-width="2.5" stroke-linecap="round" stroke-linejoin="round"/>
</svg>
