<svg width="41" height="41" viewBox="0 0 41 41" fill="none" xmlns="http://www.w3.org/2000/svg">
<path d="M1.9668 37H38.6335" stroke="#009AC8" stroke-width="2.5" stroke-miterlimit="10" stroke-linecap="round" stroke-linejoin="round"/>
<path d="M33.2676 37.0164V29.583" stroke="#009AC8" stroke-width="2.5" stroke-miterlimit="10" stroke-linecap="round" stroke-linejoin="round"/>
<path d="M33.3015 18.4824C31.2681 18.4824 29.6348 20.1158 29.6348 22.1491V25.9324C29.6348 27.9657 31.2681 29.5991 33.3015 29.5991C35.3348 29.5991 36.9681 27.9657 36.9681 25.9324V22.1491C36.9681 20.1158 35.3348 18.4824 33.3015 18.4824Z" stroke="#009AC8" stroke-width="2.5" stroke-miterlimit="10" stroke-linecap="round" stroke-linejoin="round"/>
<path d="M3.80078 36.9996V10.383C3.80078 7.03298 5.46753 5.34961 8.7842 5.34961H19.1675C22.4842 5.34961 24.1341 7.03298 24.1341 10.383V36.9996" stroke="#009AC8" stroke-width="2.5" stroke-miterlimit="10" stroke-linecap="round" stroke-linejoin="round"/>
<path d="M9.9668 14.083H18.2168" stroke="#009AC8" stroke-width="2.5" stroke-miterlimit="10" stroke-linecap="round" stroke-linejoin="round"/>
<path d="M9.9668 20.333H18.2168" stroke="#009AC8" stroke-width="2.5" stroke-miterlimit="10" stroke-linecap="round" stroke-linejoin="round"/>
<path d="M14.0508 37V30.75" stroke="#009AC8" stroke-width="2.5" stroke-miterlimit="10" stroke-linecap="round" stroke-linejoin="round"/>
</svg>
