<svg width="41" height="40" viewBox="0 0 41 40" fill="none" xmlns="http://www.w3.org/2000/svg">
<path fill-rule="evenodd" clip-rule="evenodd" d="M19.0182 14.8959C21.4347 14.8959 23.703 13.7091 25.0914 11.7578H27.1771C27.4084 11.7578 27.6346 11.6894 27.8272 11.5609L29.0599 10.7391L30.2927 11.5609C30.6863 11.8234 31.1991 11.8234 31.5928 11.5609L32.8255 10.7391L34.0584 11.5609C34.5231 11.8709 35.142 11.8095 35.537 11.4145L38.6751 8.27648C39.1327 7.81883 39.1327 7.07687 38.6751 6.61922L35.537 3.48125C35.3172 3.26148 35.0191 3.13797 34.7083 3.13797H25.0914C23.703 1.1868 21.4347 0 19.0182 0C14.9114 0 11.5703 3.34117 11.5703 7.44789C11.5703 11.5546 14.9114 14.8959 19.0182 14.8959ZM19.0182 2.34375C20.8338 2.34375 22.5277 3.32203 23.439 4.8968C23.6484 5.25883 24.035 5.48172 24.4533 5.48172H34.2229L36.1891 7.44789L34.559 9.07797L33.4755 8.35563C33.0819 8.09328 32.5691 8.09328 32.1754 8.35563L30.9427 9.1775L29.7098 8.35563C29.3162 8.09328 28.8034 8.0932 28.4098 8.35563L26.8223 9.41406H24.4533C24.035 9.41406 23.6484 9.63703 23.439 9.99898C22.5277 11.5737 20.8338 12.552 19.0182 12.552C16.2038 12.552 13.9141 10.2623 13.9141 7.44789C13.9141 4.63344 16.2038 2.34375 19.0182 2.34375Z" fill="#009AC8"/>
<path fill-rule="evenodd" clip-rule="evenodd" d="M37.939 17.3965C36.5014 15.9578 34.1721 15.955 32.7318 17.3962L28.7859 21.3417C28.2963 19.8822 26.9158 18.8278 25.2936 18.8278H17.7611C14.5688 18.8278 11.8618 21.2741 11.5908 24.5139L3.12645 32.9784C2.66879 33.436 2.66879 34.178 3.12645 34.6356L8.1473 39.6565C8.60496 40.1142 9.34707 40.1141 9.80457 39.6565L16.9926 32.4685H26.0292C27.3479 32.4685 28.5878 31.955 29.5201 31.0226L37.9386 22.6036C39.3769 21.166 39.3802 18.8367 37.939 17.3965ZM8.9759 37.1706L5.61238 33.8071L8.9759 30.4435L12.3394 33.8071L8.9759 37.1706ZM36.2814 20.946L27.8628 29.3653C27.3731 29.855 26.7218 30.1247 26.0292 30.1247H16.5071C16.1964 30.1247 15.8983 30.2481 15.6786 30.468L13.9968 32.1497L10.6332 28.7862L13.5702 25.8492C13.79 25.6294 13.9135 25.33 13.9135 25.0192C13.9135 22.8987 15.6392 21.1716 17.7611 21.1716H25.2936C26.0317 21.1716 26.6321 21.7721 26.6321 22.5101C26.6321 23.2481 26.0317 23.8486 25.2936 23.8486H20.2728C19.6256 23.8486 19.1009 24.3733 19.1009 25.0205C19.1009 25.6677 19.6256 26.1924 20.2728 26.1924H25.2936C26.555 26.1924 27.7407 25.7011 28.6327 24.8092L34.3893 19.0531C34.9113 18.5308 35.7571 18.5285 36.2818 19.0536C36.804 19.5757 36.8063 20.4214 36.2814 20.946Z" fill="#009AC8"/>
<path d="M17.7617 8.62012C18.4089 8.62012 18.9336 8.09545 18.9336 7.44824C18.9336 6.80103 18.4089 6.27637 17.7617 6.27637C17.1145 6.27637 16.5898 6.80103 16.5898 7.44824C16.5898 8.09545 17.1145 8.62012 17.7617 8.62012Z" fill="#009AC8"/>
</svg>
