<svg width="40" height="41" viewBox="0 0 40 41" fill="none" xmlns="http://www.w3.org/2000/svg">
<path d="M30 31.7679H28.7333C27.4 31.7679 26.1333 32.2845 25.2 33.2179L22.35 36.0345C21.05 37.3179 18.9333 37.3179 17.6333 36.0345L14.7833 33.2179C13.85 32.2845 12.5667 31.7679 11.25 31.7679H10C7.23333 31.7679 5 29.5512 5 26.8179V8.63452C5 5.90119 7.23333 3.68457 10 3.68457H30C32.7667 3.68457 35 5.90119 35 8.63452V26.8179C35 29.5346 32.7667 31.7679 30 31.7679Z" stroke="#009AC8" stroke-width="2.5" stroke-miterlimit="10" stroke-linecap="round" stroke-linejoin="round"/>
<path d="M20.4667 25.2677C20.2167 25.351 19.8 25.351 19.5333 25.2677C17.3667 24.5177 12.5 21.4343 12.5 16.1843C12.5 13.8677 14.3667 12.001 16.6667 12.001C18.0333 12.001 19.2333 12.651 20 13.6676C20.7667 12.651 21.9667 12.001 23.3333 12.001C25.6333 12.001 27.5 13.8677 27.5 16.1843C27.4833 21.4343 22.6333 24.5177 20.4667 25.2677Z" stroke="#009AC8" stroke-width="2.5" stroke-linecap="round" stroke-linejoin="round"/>
</svg>
