<svg width="40" height="40" viewBox="0 0 40 40" fill="none" xmlns="http://www.w3.org/2000/svg">
<g clip-path="url(#clip0_6365_11064)">
<path d="M11.3357 11.335C10.2313 11.335 9.33594 12.2303 9.33594 13.3347C9.33594 14.4391 10.2312 15.3344 11.3357 15.3344C12.4401 15.3344 13.3354 14.4392 13.3354 13.3347C13.3342 12.2308 12.4396 11.3362 11.3357 11.335ZM11.3357 14.0013C10.9675 14.0013 10.6691 13.7029 10.6691 13.3348C10.6691 12.9666 10.9675 12.6682 11.3357 12.6682C11.7038 12.6682 12.0022 12.9666 12.0022 13.3348C12.0018 13.7027 11.7037 14.0009 11.3357 14.0013Z" fill="#009AC8" stroke="#009AC8" stroke-width="0.5"/>
<path d="M39.8088 27.5343L37.3312 24.9864V20.0002C37.3305 19.2642 36.734 18.6678 35.998 18.667H34.6648C33.9289 18.6677 33.3325 19.2642 33.3317 20.0002V20.8734L30.2816 17.7368C29.7556 17.2169 28.9093 17.2168 28.3831 17.7365L18.8559 27.5343C18.6884 27.7047 18.6249 27.9517 18.6896 28.1819C18.7543 28.412 18.937 28.5898 19.1688 28.6481C19.4006 28.7063 19.6458 28.636 19.8115 28.4639L20.6669 27.5831V30.6654H13.3345V17.5438C13.4675 17.4803 13.5969 17.411 13.7226 17.3358C14.4551 18.0713 15.2829 18.7052 16.1837 19.2207C17.5025 20.0525 19.0072 20.5438 20.5627 20.6501C20.8408 20.6533 21.1182 20.6205 21.3878 20.5522C21.8371 20.4527 22.2262 20.1736 22.4645 19.7799C23.3358 18.2651 21.3025 16.0291 18.8435 14.6035C17.9523 14.0797 16.995 13.6776 15.9971 13.4076C15.9975 13.383 16.0008 13.3591 16.0008 13.3345C15.9992 11.6406 15.0801 10.0804 13.5992 9.25801C13.8726 8.19456 14.0077 7.10018 14.0011 6.00212C14.0011 3.02073 13.0881 0.00292969 11.3432 0.00292969C9.59799 0.00292969 8.68507 3.02073 8.68507 6.00212C8.6785 7.09721 8.81278 8.18855 9.08447 9.24942C7.59553 10.0698 6.67018 11.6346 6.66878 13.3345C6.66878 13.3606 6.67221 13.3858 6.67268 13.4117C5.67836 13.6832 4.72443 14.0853 3.8358 14.6074C1.3723 16.0359 -0.666174 18.2746 0.204803 19.7897C0.442818 20.1829 0.831359 20.4617 1.2802 20.5611C1.54962 20.6294 1.82677 20.6623 2.10462 20.6591C3.66457 20.5519 5.17351 20.059 6.49599 19.2246C7.39649 18.7094 8.22435 18.0764 8.95753 17.3423C9.08001 17.4152 9.20586 17.4825 9.33514 17.5439V35.9981H6.6687C5.56432 35.9981 4.66897 36.8934 4.66897 37.9978C4.66897 39.1023 5.56424 39.9975 6.6687 39.9975H16.0008C17.1052 39.9975 18.0005 39.1022 18.0005 37.9978C18.0005 36.8934 17.1052 35.9981 16.0008 35.9981H13.3345V34.6649H20.6669V37.9978C20.6681 39.1017 21.5627 39.9964 22.6666 39.9975H35.9982C37.1021 39.9964 37.9967 39.1017 37.9979 37.9978V27.5842L38.8533 28.4639C39.019 28.636 39.2642 28.7063 39.496 28.648C39.7278 28.5897 39.9105 28.4118 39.9752 28.1818C40.0397 27.9517 39.9762 27.7047 39.8088 27.5343ZM15.7883 14.7266C16.6238 14.9691 17.4255 15.3152 18.175 15.7569C20.6811 17.2098 21.5076 18.7695 21.309 19.1152C21.2406 19.1946 21.1463 19.2474 21.0428 19.2642C20.3433 19.4511 18.7325 19.1575 16.8526 18.0671C16.0911 17.6328 15.3875 17.1042 14.7585 16.4937C15.2283 15.9882 15.5801 15.3846 15.7883 14.7266ZM11.3432 1.33595C11.7276 1.33595 12.6679 2.97112 12.6679 6.00197C12.6743 6.93832 12.5675 7.87203 12.3497 8.78276C11.6868 8.63145 10.9986 8.63013 10.3352 8.77878C10.1182 7.86929 10.0118 6.937 10.0182 6.00197C10.0182 2.9712 10.9587 1.33595 11.3432 1.33595ZM5.82733 18.071C3.94024 19.165 2.32678 19.4612 1.62508 19.273C1.52228 19.2563 1.42862 19.2039 1.36043 19.1252C1.16155 18.7792 1.99152 17.2176 4.50422 15.7607C5.25139 15.3205 6.05027 14.9744 6.88258 14.7306C7.09216 15.3909 7.44609 15.9961 7.91884 16.5024C7.28986 17.1106 6.58722 17.6376 5.82733 18.071ZM16.0008 37.3311C16.369 37.3311 16.6674 37.6295 16.6674 37.9977C16.6674 38.3658 16.3689 38.6642 16.0008 38.6642H6.6687C6.30054 38.6642 6.00215 38.3658 6.00215 37.9977C6.00215 37.6295 6.30054 37.3311 6.6687 37.3311H16.0008ZM10.6682 35.998V17.9472C11.1097 18.0181 11.5598 18.0181 12.0013 17.9472V35.9979L10.6682 35.998ZM11.3347 16.6672C9.71711 16.6635 8.33597 15.4985 8.05945 13.9047C8.06273 13.8731 8.06359 13.8413 8.06203 13.8096C8.05929 13.7941 8.04929 13.7825 8.04562 13.7674C8.02148 13.6242 8.0068 13.4796 8.00188 13.3344C8.00453 11.9723 8.83567 10.7488 10.101 10.2445L10.1021 10.2444L10.1028 10.2439C11.3493 9.74646 12.7726 10.0458 13.7131 11.0032C14.6536 11.9605 14.9275 13.3889 14.4079 14.6264C13.8884 15.8637 12.6768 16.6683 11.3347 16.6672ZM20.6668 33.3316H13.3344V31.9985H20.6668V33.3316ZM34.6649 20.0002H35.9981V23.6154L34.6649 22.2445V20.0002ZM30.6655 38.6643H27.9992V33.3316H30.6655V38.6643ZM36.6647 37.9977C36.6642 38.3657 36.366 38.6638 35.9981 38.6643H31.9986V33.3316C31.9979 32.5956 31.4015 31.9992 30.6655 31.9985H27.9992C27.2632 31.9992 26.6668 32.5956 26.666 33.3316V38.6643H22.6665C22.2986 38.6638 22.0005 38.3657 22 37.9977V26.2101L29.3258 18.666L36.1882 25.7231L36.2 25.7353L36.6647 26.2132V37.9977Z" fill="#009AC8" stroke="#009AC8" stroke-width="0.5"/>
<path d="M29.3323 24C27.8598 24 26.666 25.1937 26.666 26.6663C26.666 28.1388 27.8598 29.3326 29.3323 29.3326C30.8048 29.3326 31.9986 28.1388 31.9986 26.6663C31.9969 25.1945 30.8042 24.0016 29.3323 24ZM29.3323 27.9995C28.596 27.9995 27.9991 27.4026 27.9991 26.6663C27.9991 25.93 28.596 25.3331 29.3323 25.3331C30.0686 25.3331 30.6655 25.93 30.6655 26.6663C30.6647 27.4023 30.0683 27.9987 29.3323 27.9995Z" fill="#009AC8" stroke="#009AC8" stroke-width="0.5"/>
</g>
<defs>
<clipPath id="clip0_6365_11064">
<rect width="40" height="40" fill="white"/>
</clipPath>
</defs>
</svg>
