<svg width="40" height="40" viewBox="0 0 40 40" fill="none" xmlns="http://www.w3.org/2000/svg">
<path d="M20.7373 23.2988C20.6687 23.3898 20.588 23.4706 20.4961 23.5381C20.2595 23.7001 19.9694 23.7646 19.6865 23.7158C19.4006 23.6665 19.1453 23.5066 18.9766 23.2705C18.8079 23.0343 18.739 22.7406 18.7852 22.4541C18.83 22.1754 18.9804 21.925 19.2041 21.7539L23.3506 19.1455L20.7373 23.2988Z" fill="#009AC8" stroke="#009AC8" stroke-width="2.5"/>
<path d="M20.002 4.99609C10.3379 4.99609 2.50197 12.8242 2.50197 22.4883C2.49604 26.764 4.06137 30.8928 6.90041 34.0898C6.98635 34.1836 7.06447 34.2773 7.15041 34.3633C7.33528 34.5634 7.55971 34.723 7.80946 34.8319C8.05922 34.9408 8.32887 34.9967 8.60134 34.9959C8.87381 34.9952 9.14316 34.9379 9.39232 34.8276C9.64149 34.7174 9.86505 34.5566 10.0488 34.3555C11.3156 32.9788 12.8543 31.8799 14.5675 31.1282C16.2806 30.3765 18.1311 29.9884 20.002 29.9884C21.8728 29.9884 23.7233 30.3765 25.4365 31.1282C27.1497 31.8799 28.6883 32.9788 29.9551 34.3555C30.1389 34.5566 30.3624 34.7174 30.6116 34.8276C30.8608 34.9379 31.1301 34.9952 31.4026 34.9959C31.6751 34.9967 31.9447 34.9408 32.1945 34.8319C32.4442 34.723 32.6687 34.5634 32.8535 34.3633L33.1035 34.0898C35.9426 30.8928 37.5079 26.764 37.502 22.4883C37.502 12.8242 29.666 4.99609 20.002 4.99609Z" stroke="#009AC8" stroke-width="2.5" stroke-linecap="round" stroke-linejoin="round"/>
<path d="M20.002 9.99707V12.4971" stroke="#009AC8" stroke-width="2.5" stroke-miterlimit="10" stroke-linecap="round"/>
<path d="M32.502 22.4961H30.002" stroke="#009AC8" stroke-width="2.5" stroke-miterlimit="10" stroke-linecap="round"/>
<path d="M10.002 22.4961H7.50195" stroke="#009AC8" stroke-width="2.5" stroke-miterlimit="10" stroke-linecap="round"/>
<path d="M12.9301 15.4252L11.1621 13.6572" stroke="#009AC8" stroke-width="2.5" stroke-miterlimit="10" stroke-linecap="round"/>
<path d="M27.0723 15.4252L28.8402 13.6572" stroke="#009AC8" stroke-width="2.5" stroke-miterlimit="10" stroke-linecap="round"/>
</svg>
