<svg width="41" height="41" viewBox="0 0 41 41" fill="none" xmlns="http://www.w3.org/2000/svg">
<path d="M7.90039 18.7001V26.9834C7.90039 30.0167 7.90039 30.0167 10.7671 31.9501L18.6504 36.5001C19.8337 37.1834 21.7671 37.1834 22.9504 36.5001L30.8337 31.9501C33.7004 30.0167 33.7004 30.0167 33.7004 26.9834V18.7001C33.7004 15.6667 33.7004 15.6667 30.8337 13.7334L22.9504 9.1834C21.7671 8.50007 19.8337 8.50007 18.6504 9.1834L10.7671 13.7334C7.90039 15.6667 7.90039 15.6667 7.90039 18.7001Z" stroke="#009AC8" stroke-width="2.5" stroke-linecap="round" stroke-linejoin="round"/>
<path d="M29.9681 13.0503V8.66699C29.9681 5.33366 28.3014 3.66699 24.9681 3.66699H16.6348C13.3014 3.66699 11.6348 5.33366 11.6348 8.66699V12.9337" stroke="#009AC8" stroke-width="2.5" stroke-linecap="round" stroke-linejoin="round"/>
<path d="M21.8517 18.6506L22.8017 20.1339C22.9517 20.3673 23.2851 20.6006 23.5351 20.6673L25.235 21.1006C26.285 21.3673 26.5684 22.2673 25.8851 23.1006L24.7684 24.4506C24.6017 24.6673 24.4684 25.0506 24.4851 25.3173L24.5851 27.0673C24.6517 28.1506 23.8851 28.7006 22.8851 28.3006L21.2517 27.6506C21.0017 27.5506 20.5851 27.5506 20.3351 27.6506L18.7017 28.3006C17.7017 28.7006 16.9351 28.1339 17.0017 27.0673L17.1017 25.3173C17.1184 25.0506 16.985 24.6506 16.8184 24.4506L15.7017 23.1006C15.0184 22.2673 15.3017 21.3673 16.3517 21.1006L18.0517 20.6673C18.3184 20.6006 18.6517 20.3506 18.7851 20.1339L19.7351 18.6506C20.3351 17.7506 21.2684 17.7506 21.8517 18.6506Z" stroke="#009AC8" stroke-width="2.5" stroke-linecap="round" stroke-linejoin="round"/>
</svg>
