<svg width="41" height="41" viewBox="0 0 41 41" fill="none" xmlns="http://www.w3.org/2000/svg">
<path d="M22.8508 22.5292L20.8324 24.5475L16.319 20.0341L16.3187 20.0338L18.3372 18.0154C18.7033 17.6493 18.7033 17.0557 18.3372 16.6896C17.9711 16.3235 17.3774 16.3235 17.0114 16.6896L14.9929 18.708L14.0528 17.7679C13.3216 17.0366 12.1322 17.0366 11.4016 17.7679L10.0434 19.126C9.39219 19.7766 9.32094 20.791 9.82969 21.5216L7.49531 23.856C7.09094 24.2604 6.89469 24.8185 6.95719 25.3866L7.31531 28.6441L5.39156 30.5672C4.66094 31.2985 4.66094 32.4879 5.39156 33.2191L5.85656 33.6841L4.47344 35.0666C4.10781 35.4329 4.10781 36.0266 4.47344 36.3929C4.83806 36.7575 5.43262 36.7599 5.79969 36.3929L7.18219 35.0097L7.64719 35.4747C8.37812 36.2057 9.56425 36.2083 10.2991 35.4747L12.2222 33.551L15.4797 33.9091C16.0659 33.9725 16.6174 33.7639 17.0103 33.371L19.3447 31.0366C20.0614 31.5393 21.0789 31.4854 21.7403 30.8229L23.0984 29.4647C23.8312 28.7332 23.8317 27.5455 23.0984 26.8135L22.1582 25.8734L24.1766 23.855C24.5427 23.4889 24.5427 22.8953 24.1766 22.5292C23.8105 22.163 23.2169 22.163 22.8508 22.5292ZM8.97394 34.1497C8.97394 34.1497 8.97331 34.1491 8.97269 34.1491C8.97269 34.1485 8.97269 34.1485 8.97269 34.1485L6.71769 31.8935L8.29644 30.3147L10.5521 32.5704L8.97394 34.1497ZM15.6846 32.0454L12.3077 31.6741L9.19206 28.5585L8.82081 25.1816L11.1346 22.8685L17.9977 29.7316L15.6846 32.0454ZM20.4159 29.4979C20.4159 29.4979 20.4152 29.4979 20.4146 29.4972C19.9909 29.0735 11.7117 20.7944 11.3689 20.4516L12.7271 19.0935C14.8109 21.1773 19.864 26.2304 21.7727 28.1391L20.4159 29.4979Z" fill="#009AC8"/>
<path d="M35.9235 4.94159C35.5574 4.57546 34.9637 4.57546 34.5977 4.94159L29.7439 9.79533L26.5468 6.59821C25.2075 5.25759 23.0321 5.25165 21.6856 6.59821L17.8662 10.4182C17.1334 11.1496 17.1329 12.3375 17.8662 13.0695L27.7956 22.9988C28.5271 23.7316 29.7149 23.7321 30.4469 22.9988L34.2669 19.1795C35.6102 17.8361 35.6109 15.661 34.2669 14.3182L31.0697 11.1211L35.9235 6.26734C36.2897 5.90127 36.2897 5.30771 35.9235 4.94159ZM32.9412 17.8532L29.1219 21.6738C29.1219 21.6738 29.1219 21.6738 29.1212 21.6732L19.1918 11.7438L23.0118 7.92384C23.6223 7.31334 24.6107 7.3134 25.2212 7.92384C25.5725 8.27515 32.5875 15.2901 32.9412 15.6438C33.5505 16.2531 33.5529 17.2415 32.9412 17.8532Z" fill="#009AC8"/>
<path d="M26.3719 12.672C26.0058 12.3059 25.4121 12.306 25.0461 12.672C24.68 13.0382 24.68 13.6317 25.0461 13.9978L26.8691 15.8208C27.2351 16.187 27.8288 16.187 28.1949 15.8208C28.561 15.4548 28.561 14.8612 28.1949 14.495L26.3719 12.672Z" fill="#009AC8"/>
</svg>
