<svg width="41" height="40" viewBox="0 0 41 40" fill="none" xmlns="http://www.w3.org/2000/svg">
<path fill-rule="evenodd" clip-rule="evenodd" d="M5.82763 1.817C4.58248 2.24852 3.63485 3.30703 3.40923 4.51828C3.35923 4.78689 3.33203 10.056 3.33203 19.4758C3.33203 32.4278 3.34501 34.0496 3.45095 34.3036C3.71912 34.947 4.26438 35.278 4.97733 35.2304C5.38785 35.2029 5.57413 35.1273 6.51293 34.6063C7.10059 34.2802 7.60406 34.0135 7.63179 34.0135C7.65952 34.0135 8.27806 34.3391 9.0063 34.737C9.73462 35.135 10.4491 35.483 10.5942 35.5102C11.0003 35.5866 11.4008 35.44 12.5905 34.7797C13.1933 34.4452 13.7704 34.1332 13.8728 34.0864C14.0382 34.0109 14.2011 34.0796 15.324 34.6989C16.0197 35.0826 16.6968 35.4182 16.8288 35.4446C17.1751 35.5141 17.5763 35.3543 17.8553 35.0359C18.0806 34.7787 18.0955 34.7266 18.0651 34.3055C18.0207 33.6904 17.9025 33.5873 16.0839 32.5795C14.6731 31.7978 14.5569 31.7478 14.0866 31.7223L13.5873 31.6952L12.255 32.4309C11.5223 32.8356 10.8828 33.1663 10.8339 33.1658C10.785 33.1655 10.1746 32.8479 9.47751 32.4602C8.33998 31.8275 8.16115 31.7517 7.73373 31.7208C7.2752 31.6877 7.22726 31.7025 6.44279 32.1186C5.99471 32.3562 5.61246 32.5507 5.59334 32.5507C5.57421 32.5507 5.56745 26.286 5.57836 18.6291L5.59818 4.70752L5.81342 4.42474C6.27141 3.82292 5.24612 3.87266 17.1978 3.87266C27.5462 3.87266 27.8846 3.8772 28.1704 4.0194C28.3327 4.10016 28.5574 4.30549 28.6698 4.47563L28.8742 4.78512L28.9126 11.2578L28.951 17.7305L29.1248 17.9747C29.3686 18.3173 29.8689 18.5 30.2683 18.3922C30.6041 18.3016 30.9335 17.9997 31.0586 17.6678C31.1689 17.3753 31.172 5.17722 31.0619 4.59565C30.9435 3.97013 30.58 3.26653 30.1273 2.78674C29.653 2.28416 29.2403 2.02456 28.5957 1.82354C28.1492 1.68427 27.6939 1.67858 17.1717 1.68104C6.9776 1.68335 6.18584 1.69282 5.82763 1.817ZM9.70673 10.5216C9.35153 10.712 9.1574 11.0593 9.1574 11.5049C9.1574 11.892 9.29453 12.1396 9.66072 12.4136C9.87089 12.5709 9.93673 12.5725 17.0928 12.5931C24.1106 12.6133 24.3223 12.6096 24.6518 12.4636C25.1232 12.2546 25.3195 11.922 25.2808 11.3976C25.2591 11.1035 25.2002 10.9384 25.0653 10.7937C24.6578 10.3566 25.0651 10.3781 17.2196 10.3781C10.2988 10.3781 9.96246 10.3845 9.70673 10.5216ZM9.65411 16.2262C8.99017 16.6318 8.99017 17.6744 9.65411 18.08C9.89348 18.2263 10.0954 18.2304 17.2208 18.2306C25.3023 18.2309 24.8394 18.2593 25.1515 17.746C25.4589 17.2409 25.2661 16.4882 24.7596 16.2159C24.5114 16.0825 24.1216 16.0753 17.199 16.0756C10.0953 16.0758 9.8934 16.0799 9.65411 16.2262ZM27.2994 20.4732C23.2636 20.9398 20.0538 24.0876 19.4594 28.1616C19.3221 29.1029 19.4044 30.6389 19.6411 31.5538C20.5265 34.9749 23.1921 37.4996 26.6421 38.1844C27.7437 38.403 29.4681 38.3499 30.5642 38.0636C31.4824 37.8237 32.9573 37.1136 33.6778 36.5645C36.2188 34.6278 37.5731 31.5004 37.2134 28.3998C36.7267 24.2035 33.4568 20.9427 29.2583 20.4663C28.4735 20.3773 28.1183 20.3785 27.2994 20.4732ZM9.93965 21.7725C9.05593 21.9865 8.86964 23.2953 9.65411 23.7784C9.89133 23.9244 10.0374 23.929 13.7973 23.9096L17.6946 23.8896L17.9772 23.6064C18.218 23.365 18.2642 23.2627 18.2899 22.9135C18.3259 22.4265 18.1532 22.0886 17.7581 21.8724C17.5255 21.7451 17.209 21.7328 13.8562 21.7208C11.8493 21.7136 10.0868 21.7368 9.93965 21.7725ZM29.2672 22.7023C32.6781 23.1778 35.2125 26.2536 35.0346 29.7022C34.8465 33.3495 31.9404 36.1146 28.298 36.1119C26.5952 36.1107 25.0372 35.5096 23.8001 34.3765C21.3863 32.1657 20.8903 28.4064 22.6596 25.7321C24.1418 23.4918 26.6569 22.3385 29.2672 22.7023Z" fill="#009AC8"/>
<path d="M26.25 31.5782L25.69 32.1243C25.6527 32.1569 25.6177 32.1569 25.585 32.1243L25.102 31.6412C24.8127 31.7859 24.4907 31.8583 24.136 31.8583C23.7113 31.8583 23.345 31.7603 23.037 31.5642C22.7337 31.3682 22.5213 31.0812 22.4 30.7032C22.3113 30.4232 22.267 29.9892 22.267 29.4012C22.267 28.8132 22.3113 28.3792 22.4 28.0992C22.5213 27.7212 22.7337 27.4342 23.037 27.2382C23.345 27.0422 23.7113 26.9442 24.136 26.9442C24.5607 26.9442 24.9247 27.0422 25.228 27.2382C25.536 27.4342 25.7507 27.7212 25.872 28.0992C25.9607 28.3792 26.005 28.8132 26.005 29.4012C26.005 29.9892 25.9607 30.4232 25.872 30.7032C25.8487 30.7732 25.809 30.8689 25.753 30.9902L26.25 31.4802C26.2827 31.5129 26.2827 31.5456 26.25 31.5782ZM24.136 30.9552C24.234 30.9552 24.318 30.9459 24.388 30.9272L24.087 30.6262C24.0543 30.5936 24.0543 30.5609 24.087 30.5282L24.647 29.9962C24.6843 29.9636 24.7193 29.9636 24.752 29.9962L24.941 30.1852C24.9597 30.0406 24.969 29.7792 24.969 29.4012C24.969 28.8692 24.9433 28.5262 24.892 28.3722C24.78 28.0222 24.528 27.8472 24.136 27.8472C23.744 27.8472 23.492 28.0222 23.38 28.3722C23.3287 28.5262 23.303 28.8692 23.303 29.4012C23.303 29.9332 23.3287 30.2762 23.38 30.4302C23.492 30.7802 23.744 30.9552 24.136 30.9552ZM26.1815 31.7112L27.8195 27.0912C27.8335 27.0446 27.8638 27.0212 27.9105 27.0212H28.7925C28.8392 27.0212 28.8695 27.0446 28.8835 27.0912L30.4935 31.7112C30.5075 31.7579 30.4912 31.7812 30.4445 31.7812H29.5345C29.4878 31.7812 29.4575 31.7579 29.4435 31.7112L29.1705 30.8782H27.5045L27.2385 31.7112C27.2245 31.7579 27.1942 31.7812 27.1475 31.7812H26.2305C26.1838 31.7812 26.1675 31.7579 26.1815 31.7112ZM27.7915 30.0032H28.8905L28.3515 28.3372H28.3305L27.7915 30.0032ZM34.4194 31.7812H33.4254C33.374 31.7812 33.339 31.7579 33.3204 31.7112L32.5014 29.9682H31.8644C31.8364 29.9682 31.8224 29.9822 31.8224 30.0102V31.7112C31.8224 31.7579 31.799 31.7812 31.7524 31.7812H30.8634C30.8167 31.7812 30.7934 31.7579 30.7934 31.7112V27.0912C30.7934 27.0446 30.8167 27.0212 30.8634 27.0212H32.7604C33.2457 27.0212 33.6354 27.1589 33.9294 27.4342C34.228 27.7049 34.3774 28.0596 34.3774 28.4982C34.3774 28.8016 34.3027 29.0699 34.1534 29.3032C34.004 29.5319 33.7964 29.7046 33.5304 29.8212L34.4684 31.6972C34.4777 31.7159 34.4777 31.7346 34.4684 31.7532C34.459 31.7719 34.4427 31.7812 34.4194 31.7812ZM32.7044 29.0932C32.9004 29.0932 33.0567 29.0396 33.1734 28.9322C33.29 28.8249 33.3484 28.6802 33.3484 28.4982C33.3484 28.3209 33.29 28.1786 33.1734 28.0712C33.0567 27.9639 32.9004 27.9102 32.7044 27.9102H31.8644C31.8364 27.9102 31.8224 27.9242 31.8224 27.9522V29.0512C31.8224 29.0792 31.8364 29.0932 31.8644 29.0932H32.7044Z" fill="#009AC8"/>
</svg>
