<svg width="41" height="41" viewBox="0 0 41 41" fill="none" xmlns="http://www.w3.org/2000/svg">
<path d="M37.4681 20.6667C37.4681 29.8667 30.0014 37.3333 20.8014 37.3333C11.6014 37.3333 4.13477 29.8667 4.13477 20.6667C4.13477 11.4667 11.6014 4 20.8014 4" stroke="#009AC8" stroke-width="2.5" stroke-linecap="round" stroke-linejoin="round"/>
<path d="M29.1348 5.66699V12.3337H35.8014" stroke="#009AC8" stroke-width="2.5" stroke-linecap="round" stroke-linejoin="round"/>
<path d="M37.4681 4L29.1348 12.3333" stroke="#009AC8" stroke-width="2.5" stroke-linecap="round" stroke-linejoin="round"/>
<path d="M16.7962 24.502L15.8612 25.492L14.7282 24.403C14.2442 24.711 13.6282 24.876 12.8802 24.876C11.7582 24.876 10.8452 24.491 10.1412 23.743C9.43722 22.984 9.08522 22.005 9.08522 20.806C9.08522 19.596 9.44822 18.595 10.1852 17.825C10.9222 17.044 11.8572 16.659 13.0012 16.659C14.1342 16.659 15.0472 17.033 15.7512 17.803C16.4552 18.573 16.8072 19.574 16.8072 20.828C16.8072 21.389 16.7302 21.884 16.5762 22.302C16.4222 22.72 16.1582 23.138 15.8062 23.545L16.7962 24.502ZM13.6612 21.466L14.4422 22.203C14.6402 21.884 14.7392 21.433 14.7392 20.85C14.7392 20.036 14.5852 19.42 14.2772 18.98C13.9692 18.54 13.5292 18.331 12.9572 18.331C12.4072 18.331 11.9672 18.54 11.6372 18.98C11.3072 19.42 11.1532 20.003 11.1532 20.751C11.1532 21.499 11.3072 22.104 11.6262 22.555C11.9452 22.995 12.3742 23.226 12.9242 23.226C13.1002 23.226 13.2762 23.182 13.4742 23.105L12.7592 22.423L13.6612 21.466ZM22.1457 16.824L25.0717 24.667H22.9597L22.4537 23.237H19.7477L19.2307 24.667H17.1407L20.0777 16.824H22.1457ZM21.9917 21.763L21.1117 19.024L20.2097 21.763H21.9917ZM25.6669 24.667V16.835H29.7479C30.5179 16.835 31.1559 17.033 31.6509 17.418C32.1459 17.803 32.3989 18.364 32.3989 19.101C32.3989 20.014 31.9919 20.652 31.1889 21.015C31.7059 21.191 32.0359 21.532 32.1789 22.027C32.2669 22.357 32.3549 22.907 32.4209 23.688C32.4209 23.71 32.4209 23.765 32.4319 23.842C32.4319 23.919 32.4429 23.974 32.4429 23.996C32.4429 24.029 32.4539 24.073 32.4649 24.139C32.4649 24.205 32.4759 24.249 32.4869 24.282C32.4979 24.315 32.5089 24.359 32.5309 24.403C32.5419 24.458 32.5639 24.502 32.5859 24.546C32.6079 24.59 32.6409 24.623 32.6739 24.667H30.5949C30.5289 24.535 30.4849 24.37 30.4629 24.194C30.4299 24.018 30.4079 23.798 30.3969 23.534C30.3749 23.281 30.3639 23.116 30.3639 23.028C30.3089 22.566 30.1769 22.236 29.9789 22.038C29.7699 21.851 29.4289 21.752 28.9669 21.752H27.7129V24.667H25.6669ZM27.7129 20.3H29.1539C29.5389 20.3 29.8359 20.234 30.0559 20.102C30.2759 19.97 30.3859 19.717 30.3859 19.332C30.3859 18.727 29.9679 18.419 29.1319 18.419H27.7129V20.3Z" fill="#009AC8"/>
</svg>
