<svg width="41" height="40" viewBox="0 0 41 40" fill="none" xmlns="http://www.w3.org/2000/svg">
<path d="M27.1442 22.3046L24.4911 24.9576C23.9238 24.3538 23.1183 23.9762 22.2264 23.9762H11.7819L4.90039 30.8574V35.9998H14.9953L16.1859 34.8092H24.0683L31.8574 27.0168C33.1561 25.7175 33.1558 23.6036 31.8569 22.3046C30.5576 21.0053 28.4435 21.0053 27.1442 22.3046ZM6.77537 31.6341L8.31429 30.0952L12.3438 34.1248H6.77537V31.6341ZM30.5313 25.6913L23.2914 32.9343H15.4093L14.6071 33.7366L9.64015 28.7695L12.5586 25.8513H22.2265C22.9065 25.8513 23.4598 26.4046 23.4598 27.0846C23.4598 27.7647 22.9065 28.318 22.2265 28.318H18.8142V30.193H22.2265C23.9404 30.193 25.3348 28.7985 25.3348 27.0846C25.3348 26.982 25.3298 26.8804 25.3201 26.7804L28.47 23.6304C29.0383 23.0622 29.9629 23.0622 30.5311 23.6304C31.0992 24.1985 31.0994 25.123 30.5313 25.6913Z" fill="#009AC8"/>
<path d="M26.8049 4L25.6143 5.19055H17.732L13.2385 9.686C12.3384 10.5864 12.082 11.8764 12.5693 13.0525C13.0566 14.2287 14.1502 14.9594 15.4234 14.9594H17.2341C17.2393 14.9653 17.2449 14.9709 17.2502 14.9769C16.7445 15.6989 16.4471 16.5769 16.4471 17.5235C16.4471 19.9789 18.4447 21.9766 20.9001 21.9766C23.3556 21.9766 25.3532 19.9789 25.3532 17.5235C25.3532 16.9971 25.2604 16.4924 25.0916 16.0236H30.0184L36.8999 9.14238V4L26.8049 4ZM23.4782 17.5234C23.4782 18.945 22.3216 20.1015 20.9001 20.1015C19.4785 20.1015 18.322 18.945 18.322 17.5234C18.322 16.9276 18.5258 16.3787 18.8667 15.9418C19.094 15.9949 19.3306 16.0236 19.5739 16.0236H22.9941C23.298 16.4465 23.4782 16.964 23.4782 17.5234ZM29.2417 14.1486H19.5738C18.8938 14.1486 18.3405 13.5953 18.3405 12.9152C18.3405 12.2352 18.8938 11.6819 19.5738 11.6819H22.9862V9.80688H19.5738C17.8599 9.80688 16.4655 11.2013 16.4655 12.9152C16.4655 12.972 16.467 13.0283 16.4701 13.0844H15.4233C14.6705 13.0844 14.3743 12.5107 14.3015 12.3349C14.2286 12.159 14.0323 11.544 14.5644 11.0116L18.5088 7.06553H26.391L27.1932 6.26329L32.1601 11.2302L29.2417 14.1486ZM35.0249 8.36571L33.486 9.90456L29.4565 5.87498H35.0249V8.36571Z" fill="#009AC8"/>
</svg>
