<svg width="40" height="40" viewBox="0 0 40 40" fill="none" xmlns="http://www.w3.org/2000/svg">
<path fill-rule="evenodd" clip-rule="evenodd" d="M18.5941 2.05765C16.1017 2.30823 13.7786 3.4119 12.4535 4.97496L12.182 5.29525L10.8323 5.29693C9.9626 5.298 9.41497 5.32163 9.29227 5.36334C8.76815 5.54158 8.41871 6.07863 8.4746 6.62C8.49106 6.77942 8.54264 6.98352 8.58917 7.07356C8.70997 7.30717 9.00901 7.58396 9.2249 7.66202C9.32665 7.69881 9.40847 7.74276 9.40662 7.75967C9.40483 7.77658 9.27312 7.85425 9.1139 7.93225C8.69328 8.13837 8.48591 8.48907 8.48591 8.99432C8.48591 9.49234 8.69138 9.84422 9.10976 10.0628C9.26712 10.145 9.42527 10.222 9.46117 10.2339C9.50244 10.2477 9.38416 10.5547 9.14028 11.0669C7.9348 13.599 7.15627 16.2032 6.89385 18.5814C6.86087 18.8804 6.83388 19.2619 6.83388 19.4291C6.83388 19.7269 6.82525 19.7431 6.40799 20.2292C4.87154 22.0191 3.65744 24.2696 3.02418 26.5015C2.52975 28.2444 2.57242 30.2697 3.14833 32.3896L3.32031 33.0227L2.81905 33.5375C1.58831 34.8015 1.00977 36.1134 1.00977 37.6401V38H1.84978H2.6898L2.69064 37.566C2.69226 36.7016 2.981 35.9519 3.61947 35.154C4.11458 34.5352 4.62127 34.1126 4.99755 34.0045C5.16051 33.9577 6.18846 33.677 7.28188 33.3808C8.37531 33.0846 9.91253 32.6657 10.6979 32.4499C11.4834 32.2341 12.304 32.0088 12.5216 31.9491C12.7391 31.8893 12.9434 31.8405 12.9756 31.8405C13.0077 31.8405 13.1878 32.0279 13.3759 32.257C14.5277 33.6602 16.4629 34.6346 18.5801 34.8771L19.1541 34.9429V36.4714V38H19.9932H20.8323L20.8472 36.4748L20.8621 34.9496L21.4222 34.8807C22.8533 34.7045 24.1212 34.2541 25.2279 33.5289C25.665 33.2425 26.5618 32.4056 26.8 32.0618C26.8844 31.9401 26.9829 31.8405 27.0188 31.8405C27.1294 31.8405 30.3796 32.7392 30.4202 32.7811C30.4412 32.8027 30.4229 32.9564 30.3794 33.1227C30.1322 34.0683 29.9863 35.3076 29.9257 36.9781L29.8887 38H30.7095C31.161 38 31.5308 37.9937 31.5313 37.986C31.5318 37.9783 31.557 37.405 31.5872 36.7121C31.6506 35.2596 31.7762 34.3191 32.0547 33.2124C32.3752 31.9389 32.4381 31.0484 32.3116 29.5727C32.1504 27.6912 31.8381 26.1489 31.1862 24.015C30.6192 22.1586 30.406 21.3841 30.2431 20.5885C30.152 20.1436 30.088 19.769 30.1009 19.7562C30.1356 19.7215 31.0862 20.3955 31.7263 20.9087C32.5678 21.5832 33.246 22.3088 33.7268 23.0492C35.3161 25.4965 36.5009 28.524 37.0138 31.4485C37.2451 32.7676 37.3037 33.5547 37.3379 35.8022L37.3714 38H38.1809H38.9903L38.9627 35.6342C38.9475 34.333 38.9062 33.0164 38.8709 32.7084C38.4463 29.0022 37.1003 25.2164 35.1284 22.1814C34.0591 20.5357 33.0395 17.9869 31.9569 14.2537C31.5296 12.7801 31.2482 11.9886 30.7943 10.9842C30.6139 10.585 30.4663 10.2552 30.4663 10.2512C30.4663 10.2472 30.5609 10.2155 30.6763 10.1807C30.9663 10.0933 31.3006 9.80261 31.4243 9.53025C31.559 9.23392 31.559 8.75471 31.4243 8.45839C31.3055 8.19677 30.9674 7.89496 30.7363 7.84423C30.6494 7.82513 30.5783 7.78834 30.5783 7.76242C30.5783 7.73649 30.6494 7.6997 30.7363 7.68061C30.8232 7.66157 30.9847 7.57136 31.0953 7.48026C31.6539 7.0198 31.684 6.12326 31.1575 5.62356C30.8423 5.32443 30.6949 5.29861 29.3009 5.29861H28.02L27.6331 4.83228C26.5224 3.49349 25.154 2.71134 23.1923 2.29412C21.9463 2.02915 19.9159 1.92472 18.5941 2.05765ZM21.0301 3.67402C22.0294 3.74239 22.9649 3.90265 23.6684 4.1259C24.3338 4.33711 25.2021 4.77746 25.5425 5.07631L25.7902 5.29385L20.1481 5.29621C17.0449 5.29755 14.5064 5.27969 14.5068 5.25662C14.5071 5.23355 14.6646 5.11064 14.8568 4.98358C16.418 3.95103 18.53 3.50301 21.0301 3.67402ZM28.8262 10.7022C29.4431 11.8736 29.8525 12.9446 30.3888 14.7899C30.6215 15.5906 30.9973 16.7994 31.2239 17.4762C31.4505 18.1529 31.626 18.7165 31.6139 18.7286C31.6019 18.7407 31.408 18.6173 31.1831 18.4543C29.6032 17.309 28.5371 16.2056 27.4718 14.6134C26.3012 12.8637 25.8228 12.2828 25.1671 11.8149C24.4086 11.2737 23.7627 11.0883 22.8055 11.137C22.3042 11.1626 22.0733 11.2091 21.3942 11.4214C20.1024 11.8253 19.8384 11.8746 18.9861 11.8705C18.1632 11.8664 18.3136 11.9046 17.0496 11.379C16.5683 11.1788 15.7146 11.0503 15.0628 11.0798C14.4112 11.1093 14.0638 11.2497 13.61 11.6669C12.9846 12.2419 12.6755 13.0095 12.5975 14.1814C12.5353 15.1161 12.4265 15.4266 11.9995 15.8877C11.6222 16.2951 11.4049 16.4484 10.4826 16.9578C10.0929 17.1731 9.52534 17.5117 9.22154 17.7104C8.91768 17.909 8.65884 18.0612 8.64629 18.0487C8.60149 18.0038 8.97239 16.3548 9.21409 15.5241C9.6775 13.9316 10.5401 11.8199 11.234 10.5793L11.4316 10.2259L20.011 10.2401L28.5903 10.2542L28.8262 10.7022ZM15.7758 12.7435C16.1232 12.7835 16.3662 12.8562 16.7838 13.0454C17.6664 13.4453 17.954 13.4999 19.1541 13.4962C20.2902 13.4927 20.4928 13.4545 22.1222 12.937C22.9393 12.6774 23.3686 12.6562 23.7737 12.8555C24.2508 13.0902 24.8311 13.7346 25.5914 14.8738C26.4279 16.1271 26.9919 16.8587 27.7007 17.61L28.235 18.1764L28.2146 19.2269C28.1964 20.1612 28.18 20.313 28.0662 20.5995C27.8942 21.0322 27.5708 21.4279 27.1629 21.7049C26.7472 21.9871 26.6834 22.0824 26.5797 22.5754C26.1363 24.683 24.0919 27.6365 22.3259 28.7208C22.1146 28.8506 21.7831 29.1 21.5893 29.2751C21.1985 29.6279 20.8516 29.8236 20.3667 29.9646C20.0947 30.0437 19.9984 30.0479 19.7531 29.9917C19.2955 29.8869 18.6635 29.5548 18.4746 29.3198C18.3831 29.2059 18.0662 28.9642 17.7704 28.7827C17.1681 28.4132 16.1809 27.5085 15.6137 26.8063C14.5955 25.5458 13.6697 23.7523 13.4258 22.5679C13.3276 22.0914 13.2327 21.9337 12.9476 21.7734C12.6234 21.5912 12.2202 21.1275 12.0395 20.7289C11.829 20.2647 11.7628 19.8283 11.7629 18.9055L11.7629 18.1496L12.1623 17.9032C13.4692 17.0969 14.226 15.8014 14.226 14.3702C14.226 13.6464 14.5311 12.9392 14.9153 12.7721C15.131 12.6783 15.1913 12.6763 15.7758 12.7435ZM10.1349 19.7932C10.208 20.527 10.4569 21.3469 10.7568 21.8418C11.0169 22.2709 11.3881 22.6848 11.6396 22.8261C11.8336 22.9351 11.8575 22.978 11.973 23.4248C12.0414 23.6895 12.2109 24.1866 12.3497 24.5294L12.602 25.1527V27.6498C12.602 29.5805 12.5861 30.1595 12.532 30.2025C12.4592 30.2602 5.05511 32.2885 4.91696 32.2885C4.8632 32.2885 4.79096 32.09 4.68769 31.6585C4.24097 29.7915 4.23061 28.2212 4.65571 26.815C5.37029 24.4513 6.68883 22.2328 8.37973 20.5494C8.85154 20.0797 10.0201 19.1038 10.0604 19.1458C10.0665 19.1522 10.1001 19.4436 10.1349 19.7932ZM29.0326 22.5624C29.0517 22.6642 29.1695 23.0737 29.2943 23.4723C30.0539 25.8972 30.3791 27.2718 30.5784 28.9017C30.7144 30.0129 30.7813 31.1132 30.7128 31.1108C30.6851 31.1098 29.9441 30.9125 29.0663 30.6724L27.4703 30.2358L27.4557 27.6213C27.4419 25.1372 27.4465 24.9962 27.5487 24.7959C27.7 24.4995 28.0363 23.516 28.0844 23.2296C28.1197 23.0196 28.1603 22.9671 28.4135 22.8038C28.5723 22.7014 28.7503 22.5635 28.809 22.4974C28.9537 22.3344 28.9919 22.3455 29.0326 22.5624ZM14.4259 27.9628C14.4814 28.0475 14.7804 28.3781 15.0904 28.6976C15.6625 29.2871 16.3001 29.8155 16.8581 30.1626C17.0275 30.2679 17.2739 30.4726 17.4056 30.6173C18.159 31.4449 19.5351 31.8425 20.7802 31.5923C21.4615 31.4554 21.9922 31.1824 22.4821 30.7171C22.7064 30.5042 23.0762 30.2081 23.304 30.0591C24.0266 29.5866 24.6014 29.073 25.3842 28.2008L25.761 27.7808L25.7616 29.2163L25.7622 30.6518L25.5353 30.9916C25.0155 31.7701 23.8665 32.557 22.7102 32.9266C20.6981 33.5698 18.1361 33.4286 16.4381 32.5809C15.6305 32.1778 14.7573 31.4546 14.3934 30.8876L14.226 30.6268V29.2178C14.226 28.4379 14.2481 27.8088 14.2756 27.8088C14.3029 27.8088 14.3705 27.8781 14.4259 27.9628Z" fill="#009AC8"/>
</svg>
